{"title":"Riddick (2013) [Theatrical Cut] BRRip 1080p [DD 5.1 Multi-Audio]","uid":9514770,"size":3393452270,"categoryP":"video","categoryS":"hd___movies","magnet":"?xt=urn:btih:8deac5d1766a8727c7e2b20f677c701d1b1f9431&amp;dn=Riddick+%282013%29+%5BTheatrical+Cut%5D+BRRip+1080p+%5BDD+5.1+Multi-Audio%5D&amp;tr=udp%3A%2F%2Ftracker.openbittorrent.com%3A80&amp;tr=udp%3A%2F%2Fopen.demonii.com%3A1337&amp;tr=udp%3A%2F%2Ftracker.coppersurfer.tk%3A6969&amp;tr=udp%3A%2F%2Fexodus.desync.com%3A6969","seeders":1,"leechers":1,"uploader":"SaNRiM","files":-1,"time":1390497074,"description":"Storyline\n\nBetrayed by his own kind and left for dead on a desolate planet, Riddick fights for survival against alien predators and becomes more powerful and dangerous than ever before. Soon bounty hunters from throughout the galaxy descend on Riddick only to find themselves pawns in his greater scheme for revenge. With his enemies right where he wants them, Riddick unleashes a vicious attack of vengeance before returning to his home planet of Furya to save it from destruction.\n\n\n\nTorrent Info\n\nGeneral\n\nUnique ID : 181829794178618980857112022683923079068 (0x88CB250082A4FE83B457E329AE495F9C)\nComplete name : Riddick (2013) [Theatrical Cut] BRRip 1080p [DD 5.1 Multi-Audio] [English-Hindi-Tamil-Telugu] ~SaNRiM~.mkv\nFormat : Matroska\nFormat version : Version 4 / Version 2\nFile size : 3.15 GiB\nDuration : 1h 58mn\nOverall bit rate : 3 802 Kbps\nEncoded date : UTC 2014-01-23 14:26:45\nWriting library : libebml v1.3.0 + libmatroska v1.4.1\n\n\nVideo\n\nID : 1\nFormat : AVC\nFormat/Info : Advanced Video Codec\nFormat profile : &lt;a class=&quot;__cf_email__&quot; href=&quot;/cdn-cgi/l/email-protection&quot; data-cfemail=&quot;440c2d232c0408706a75&quot;&gt;[email&amp;#160;protected]&lt;/a&gt;&lt;script cf-hash='f9e31' type=&quot;text/javascript&quot;&gt;\n/* &lt;![CDATA[ */!function(){try{var t=&quot;currentScript&quot;in document?document.currentScript:function(){for(var t=document.getElementsByTagName(&quot;script&quot;),e=t.length;e--;)if(t[e].getAttribute(&quot;cf-hash&quot;))return t[e]}();if(t&amp;&amp;t.previousSibling){var e,r,n,i,c=t.previousSibling,a=c.getAttribute(&quot;data-cfemail&quot;);if(a){for(e=&quot;&quot;,r=parseInt(a.substr(0,2),16),n=2;a.length-n;n+=2)i=parseInt(a.substr(n,2),16)^r,e+=String.fromCharCode(i);e=document.createTextNode(e),c.parentNode.replaceChild(e,c)}}}catch(u){}}();/* ]]&gt; */&lt;/script&gt;\nFormat settings, CABAC : Yes\nFormat settings, ReFrames : 5 frames\nCodec ID : V_MPEG4/ISO/AVC\nDuration : 1h 58mn\nBit rate : 2 009 Kbps\nWidth : 1 920 pixels\nHeight : 800 pixels\nDisplay aspect ratio : 2.40:1\nFrame rate mode : Constant\nFrame rate : 23.976 fps\nColor space : YUV\nChroma subsampling : 4:2:0\nBit depth : 8 bits\nScan type : Progressive\nBits/(Pixel*Frame) : 0.055\nStream size : 1.60 GiB (51%)\nWriting library : x264 core 138 r2358 9e941d1\nDefault : Yes\nForced : No\nColor primaries : BT.709\nMatrix coefficients : BT.709\n\n\nAudio #1\n\nID : 2\nFormat : AC-3\nFormat/Info : Audio Coding 3\nMode extension : CM (complete main)\nFormat settings, Endianness : Big\nCodec ID : A_AC3\nDuration : 1h 58mn\nBit rate mode : Constant\nBit rate : 448 Kbps\nChannel(s) : 6 channels\nChannel positions : Front: L C R, Side: L R, LFE\nSampling rate : 48.0 KHz\nBit depth : 16 bits\nCompression mode : Lossy\nStream size : 380 MiB (12%)\nTitle : ~SaNRiM~\nLanguage : Hindi\nDefault : Yes\nForced : No\n\n\nAudio #2\n\nID : 3\nFormat : AC-3\nFormat/Info : Audio Coding 3\nMode extension : CM (complete main)\nFormat settings, Endianness : Big\nCodec ID : A_AC3\nDuration : 1h 58mn\nBit rate mode : Constant\nBit rate : 448 Kbps\nChannel(s) : 6 channels\nChannel positions : Front: L C R, Side: L R, LFE\nSampling rate : 48.0 KHz\nBit depth : 16 bits\nCompression mode : Lossy\nStream size : 380 MiB (12%)\nTitle : ~SaNRiM~\nLanguage : Tamil\nDefault : No\nForced : No\n\n\nAudio #3\n\nID : 4\nFormat : AC-3\nFormat/Info : Audio Coding 3\nMode extension : CM (complete main)\nFormat settings, Endianness : Big\nCodec ID : A_AC3\nDuration : 1h 58mn\nBit rate mode : Constant\nBit rate : 448 Kbps\nChannel(s) : 6 channels\nChannel positions : Front: L C R, Side: L R, LFE\nSampling rate : 48.0 KHz\nBit depth : 16 bits\nCompression mode : Lossy\nStream size : 380 MiB (12%)\nTitle : ~SaNRiM~\nLanguage : Telugu\nDefault : No\nForced : No\n\n\nAudio #4\n\nID : 5\nFormat : AC-3\nFormat/Info : Audio Coding 3\nMode extension : CM (complete main)\nFormat settings, Endianness : Big\nCodec ID : A_AC3\nDuration : 1h 58mn\nBit rate mode : Constant\nBit rate : 448 Kbps\nChannel(s) : 6 channels\nChannel positions : Front: L C R, Side: L R, LFE\nSampling rate : 48.0 KHz\nBit depth : 16 bits\nCompression mode : Lossy\nStream size : 380 MiB (12%)\nTitle : ~SaNRiM~\nLanguage : English\nDefault : No\nForced : No\n\n\n\nScreens\n &lt;a href=&quot;\nhttp://someimage.com/ZC8zJKH&quot; rel=&quot;nofollow&quot; target=&quot;_NEW&quot;&gt;\nhttp://someimage.com/ZC8zJKH&lt;/a&gt; &lt;a href=&quot;\nhttp://someimage.com/NF8Oqrj&quot; rel=&quot;nofollow&quot; target=&quot;_NEW&quot;&gt;\nhttp://someimage.com/NF8Oqrj&lt;/a&gt; &lt;a href=&quot;\nhttp://someimage.com/Op5OKp9&quot; rel=&quot;nofollow&quot; target=&quot;_NEW&quot;&gt;\nhttp://someimage.com/Op5OKp9&lt;/a&gt; &lt;a href=&quot;\nhttp://someimage.com/7jykECK&quot; rel=&quot;nofollow&quot; target=&quot;_NEW&quot;&gt;\nhttp://someimage.com/7jykECK&lt;/a&gt; &lt;a href=&quot;\nhttp://someimage.com/rLzhdxG&quot; rel=&quot;nofollow&quot; target=&quot;_NEW&quot;&gt;\nhttp://someimage.com/rLzhdxG&lt;/a&gt; &lt;a href=&quot;\nhttp://someimage.com/N7erDd5&quot; rel=&quot;nofollow&quot; target=&quot;_NEW&quot;&gt;\nhttp://someimage.com/N7erDd5&lt;/a&gt; &lt;a href=&quot;\nhttp://someimage.com/TvfyLbc&quot; rel=&quot;nofollow&quot; target=&quot;_NEW&quot;&gt;\nhttp://someimage.com/TvfyLbc&lt;/a&gt; &lt;a href=&quot;\nhttp://someimage.com/lrbiAzt&quot; rel=&quot;nofollow&quot; target=&quot;_NEW&quot;&gt;\nhttp://someimage.com/lrbiAzt&lt;/a&gt; &lt;a href=&quot;\nhttp://someimage.com/413lDss&quot; rel=&quot;nofollow&quot; target=&quot;_NEW&quot;&gt;\nhttp://someimage.com/413lDss&lt;/a&gt; &lt;a href=&quot;\nhttp://someimage.com/HQZlN4D&quot; rel=&quot;nofollow&quot; target=&quot;_NEW&quot;&gt;\nhttp://someimage.com/HQZlN4D&lt;/a&gt; &lt;a href=&quot;\nhttp://someimage.com/g7y0sEo&quot; rel=&quot;nofollow&quot; target=&quot;_NEW&quot;&gt;\nhttp://someimage.com/g7y0sEo&lt;/a&gt; &lt;a href=&quot;\nhttp://someimage.com/qDSGe6E&quot; rel=&quot;nofollow&quot; target=&quot;_NEW&quot;&gt;\nhttp://someimage.com/qDSGe6E&lt;/a&gt; &lt;a href=&quot;\nhttp://someimage.com/Lo9dX2p&quot; rel=&quot;nofollow&quot; target=&quot;_NEW&quot;&gt;\nhttp://someimage.com/Lo9dX2p&lt;/a&gt; &lt;a href=&quot;\nhttp://someimage.com/0wtQ6aK&quot; rel=&quot;nofollow&quot; target=&quot;_NEW&quot;&gt;\nhttp://someimage.com/0wtQ6aK&lt;/a&gt; &lt;a href=&quot;\nhttp://someimage.com/FTAeKSs&quot; rel=&quot;nofollow&quot; target=&quot;_NEW&quot;&gt;\nhttp://someimage.com/FTAeKSs&lt;/a&gt; &lt;a href=&quot;\nhttp://someimage.com/gdPwHy3&quot; rel=&quot;nofollow&quot; target=&quot;_NEW&quot;&gt;\nhttp://someimage.com/gdPwHy3&lt;/a&gt; &lt;a href=&quot;\nhttp://someimage.com/LuxnIwq&quot; rel=&quot;nofollow&quot; target=&quot;_NEW&quot;&gt;\nhttp://someimage.com/LuxnIwq&lt;/a&gt; &lt;a href=&quot;\nhttp://someimage.com/wpFnLY3&quot; rel=&quot;nofollow&quot; target=&quot;_NEW&quot;&gt;\nhttp://someimage.com/wpFnLY3&lt;/a&gt; &lt;a href=&quot;\nhttp://someimage.com/HZDdJ4h&quot; rel=&quot;nofollow&quot; target=&quot;_NEW&quot;&gt;\nhttp://someimage.com/HZDdJ4h&lt;/a&gt; &lt;a href=&quot;\nhttp://someimage.com/kNAqQfM&quot; rel=&quot;nofollow&quot; target=&quot;_NEW&quot;&gt;\nhttp://someimage.com/kNAqQfM&lt;/a&gt; &lt;a href=&quot;\nhttp://someimage.com/nEFZZ3c&quot; rel=&quot;nofollow&quot; target=&quot;_NEW&quot;&gt;\nhttp://someimage.com/nEFZZ3c&lt;/a&gt; &lt;a href=&quot;\nhttp://someimage.com/yqtUFY7&quot; rel=&quot;nofollow&quot; target=&quot;_NEW&quot;&gt;\nhttp://someimage.com/yqtUFY7&lt;/a&gt; &lt;a href=&quot;\nhttp://someimage.com/gN0ODuR&quot; rel=&quot;nofollow&quot; target=&quot;_NEW&quot;&gt;\nhttp://someimage.com/gN0ODuR&lt;/a&gt;\n\n\n\n                  If you like my work please comment\n                          Any request? Just PM me\n                       Please seed long after download\n                         Thank you &amp; enjoy the best\n                                 ~SaNRiM~\t\n\n\nA BIG THANKS TO GPSOFT FOR AUDIO","torrent":{"xt":"urn:btih:8deac5d1766a8727c7e2b20f677c701d1b1f9431","amp;dn":"Riddick+%282013%29+%5BTheatrical+Cut%5D+BRRip+1080p+%5BDD+5.1+Multi-Audio%5D","amp;tr":["udp%3A%2F%2Ftracker.openbittorrent.com%3A80","udp%3A%2F%2Fopen.demonii.com%3A1337","udp%3A%2F%2Ftracker.coppersurfer.tk%3A6969","udp%3A%2F%2Fexodus.desync.com%3A6969"],"infoHash":"8deac5d1766a8727c7e2b20f677c701d1b1f9431","infoHashBuffer":{"type":"Buffer","data":[141,234,197,209,118,106,135,39,199,226,178,15,103,124,112,29,27,31,148,49]},"announce":[],"urlList":[]}}